%TF.GenerationSoftware,KiCad,Pcbnew,9.0.5*%
%TF.CreationDate,2025-11-28T17:53:20+09:00*%
%TF.ProjectId,IN-18,494e2d31-382e-46b6-9963-61645f706362,rev?*%
%TF.SameCoordinates,Original*%
%TF.FileFunction,Copper,L1,Top*%
%TF.FilePolarity,Positive*%
%FSLAX46Y46*%
G04 Gerber Fmt 4.6, Leading zero omitted, Abs format (unit mm)*
G04 Created by KiCad (PCBNEW 9.0.5) date 2025-11-28 17:53:20*
%MOMM*%
%LPD*%
G01*
G04 APERTURE LIST*
%TA.AperFunction,ComponentPad*%
%ADD10C,2.397760*%
%TD*%
%TA.AperFunction,ComponentPad*%
%ADD11R,1.700000X1.700000*%
%TD*%
%TA.AperFunction,ComponentPad*%
%ADD12C,1.700000*%
%TD*%
G04 APERTURE END LIST*
D10*
%TO.P,N1,0,0*%
%TO.N,Net-(J1-Pin_10)*%
X125718580Y-133644920D03*
%TO.P,N1,1,1*%
%TO.N,Net-(J1-Pin_1)*%
X132642620Y-131028720D03*
%TO.P,N1,2,2*%
%TO.N,Net-(J1-Pin_2)*%
X136328160Y-132062500D03*
%TO.P,N1,3,3*%
%TO.N,Net-(J1-Pin_3)*%
X140757920Y-141861820D03*
%TO.P,N1,4,4*%
%TO.N,Net-(J1-Pin_4)*%
X125652540Y-146380480D03*
%TO.P,N1,5,5*%
%TO.N,Net-(J1-Pin_5)*%
X128911360Y-148448040D03*
%TO.P,N1,6,6*%
%TO.N,Net-(J1-Pin_6)*%
X136290060Y-147904480D03*
%TO.P,N1,7,7*%
%TO.N,Net-(J1-Pin_7)*%
X139213600Y-145384800D03*
%TO.P,N1,8,8*%
%TO.N,Net-(J1-Pin_8)*%
X139226300Y-134658380D03*
%TO.P,N1,9,9*%
%TO.N,Net-(J1-Pin_9)*%
X123544340Y-136812300D03*
%TO.P,N1,A,A*%
%TO.N,Net-(J1-Pin_11)*%
X132657860Y-148973820D03*
%TO.P,N1,A2,A2*%
%TO.N,unconnected-(N1-PadA2)*%
X128878340Y-131607840D03*
%TO.P,N1,N/C*%
%TO.N,N/C*%
X123607840Y-143121660D03*
%TO.P,N1,N/C2*%
X140780780Y-138051820D03*
%TD*%
%TO.P,N2,0,0*%
%TO.N,Net-(J2-Pin_10)*%
X93718580Y-133644920D03*
%TO.P,N2,1,1*%
%TO.N,Net-(J2-Pin_1)*%
X100642620Y-131028720D03*
%TO.P,N2,2,2*%
%TO.N,Net-(J2-Pin_2)*%
X104328160Y-132062500D03*
%TO.P,N2,3,3*%
%TO.N,Net-(J2-Pin_3)*%
X108757920Y-141861820D03*
%TO.P,N2,4,4*%
%TO.N,Net-(J2-Pin_4)*%
X93652540Y-146380480D03*
%TO.P,N2,5,5*%
%TO.N,Net-(J2-Pin_5)*%
X96911360Y-148448040D03*
%TO.P,N2,6,6*%
%TO.N,Net-(J2-Pin_6)*%
X104290060Y-147904480D03*
%TO.P,N2,7,7*%
%TO.N,Net-(J2-Pin_7)*%
X107213600Y-145384800D03*
%TO.P,N2,8,8*%
%TO.N,Net-(J2-Pin_8)*%
X107226300Y-134658380D03*
%TO.P,N2,9,9*%
%TO.N,Net-(J2-Pin_9)*%
X91544340Y-136812300D03*
%TO.P,N2,A,A*%
%TO.N,Net-(J2-Pin_11)*%
X100657860Y-148973820D03*
%TO.P,N2,A2,A2*%
%TO.N,unconnected-(N2-PadA2)*%
X96878340Y-131607840D03*
%TO.P,N2,N/C*%
%TO.N,N/C*%
X91607840Y-143121660D03*
%TO.P,N2,N/C2*%
X108780780Y-138051820D03*
%TD*%
D11*
%TO.P,J1,1,Pin_1*%
%TO.N,Net-(J1-Pin_1)*%
X125650000Y-121660000D03*
D12*
%TO.P,J1,2,Pin_2*%
%TO.N,Net-(J1-Pin_2)*%
X125650000Y-119120000D03*
%TO.P,J1,3,Pin_3*%
%TO.N,Net-(J1-Pin_3)*%
X128190000Y-121660000D03*
%TO.P,J1,4,Pin_4*%
%TO.N,Net-(J1-Pin_4)*%
X128190000Y-119120000D03*
%TO.P,J1,5,Pin_5*%
%TO.N,Net-(J1-Pin_5)*%
X130730000Y-121660000D03*
%TO.P,J1,6,Pin_6*%
%TO.N,Net-(J1-Pin_6)*%
X130730000Y-119120000D03*
%TO.P,J1,7,Pin_7*%
%TO.N,Net-(J1-Pin_7)*%
X133270000Y-121660000D03*
%TO.P,J1,8,Pin_8*%
%TO.N,Net-(J1-Pin_8)*%
X133270000Y-119120000D03*
%TO.P,J1,9,Pin_9*%
%TO.N,Net-(J1-Pin_9)*%
X135810000Y-121660000D03*
%TO.P,J1,10,Pin_10*%
%TO.N,Net-(J1-Pin_10)*%
X135810000Y-119120000D03*
%TO.P,J1,11,Pin_11*%
%TO.N,Net-(J1-Pin_11)*%
X138350000Y-121660000D03*
%TO.P,J1,12,Pin_12*%
%TO.N,unconnected-(J1-Pin_12-Pad12)*%
X138350000Y-119120000D03*
%TD*%
D11*
%TO.P,J2,1,Pin_1*%
%TO.N,Net-(J2-Pin_1)*%
X93650000Y-121660000D03*
D12*
%TO.P,J2,2,Pin_2*%
%TO.N,Net-(J2-Pin_2)*%
X93650000Y-119120000D03*
%TO.P,J2,3,Pin_3*%
%TO.N,Net-(J2-Pin_3)*%
X96190000Y-121660000D03*
%TO.P,J2,4,Pin_4*%
%TO.N,Net-(J2-Pin_4)*%
X96190000Y-119120000D03*
%TO.P,J2,5,Pin_5*%
%TO.N,Net-(J2-Pin_5)*%
X98730000Y-121660000D03*
%TO.P,J2,6,Pin_6*%
%TO.N,Net-(J2-Pin_6)*%
X98730000Y-119120000D03*
%TO.P,J2,7,Pin_7*%
%TO.N,Net-(J2-Pin_7)*%
X101270000Y-121660000D03*
%TO.P,J2,8,Pin_8*%
%TO.N,Net-(J2-Pin_8)*%
X101270000Y-119120000D03*
%TO.P,J2,9,Pin_9*%
%TO.N,Net-(J2-Pin_9)*%
X103810000Y-121660000D03*
%TO.P,J2,10,Pin_10*%
%TO.N,Net-(J2-Pin_10)*%
X103810000Y-119120000D03*
%TO.P,J2,11,Pin_11*%
%TO.N,Net-(J2-Pin_11)*%
X106350000Y-121660000D03*
%TO.P,J2,12,Pin_12*%
%TO.N,unconnected-(J2-Pin_12-Pad12)*%
X106350000Y-119120000D03*
%TD*%
M02*
